<svg version="1.1" id="Layer_1" xmlns="http://www.w3.org/2000/svg" xmlns:xlink="http://www.w3.org/1999/xlink" x="0px" y="0px"
	 width="100%" viewBox="0 0 512 512" enable-background="new 0 0 512 512" xml:space="preserve">
<path fill="#000000" opacity="1.000000" stroke="none" 
	d="
M354.000000,513.000000 
	C236.028671,513.000000 118.557327,513.000000 1.042998,513.000000 
	C1.042998,342.403656 1.042998,171.807281 1.042998,1.105453 
	C171.554672,1.105453 342.109436,1.105453 512.832092,1.105453 
	C512.832092,171.666534 512.832092,342.333252 512.832092,513.000000 
	C460.140533,513.000000 407.320282,513.000000 354.000000,513.000000 
M72.183731,296.206696 
	C73.475800,300.527008 74.651237,304.886292 76.078217,309.161560 
	C88.536835,346.488068 109.447098,378.080414 140.414246,402.596558 
	C162.058075,419.731598 185.418610,433.238800 213.180222,438.591156 
	C241.599457,444.070312 269.866425,445.485291 298.071014,438.815674 
	C331.569183,430.894226 362.393341,417.390808 387.391418,392.736359 
	C402.302124,378.030640 414.231750,361.116455 423.834290,342.650177 
	C443.884949,304.091492 449.830078,263.157288 441.777130,220.550949 
	C436.757141,193.991531 426.404480,169.155914 410.416473,147.354446 
	C401.280212,134.896118 390.130676,123.759811 378.960388,112.989960 
	C367.260010,101.709007 353.399567,93.050323 338.726868,86.073654 
	C321.848907,78.048386 303.868591,72.950531 285.452698,70.255432 
	C266.127472,67.427277 246.555191,67.942177 227.309052,71.295792 
	C187.766373,78.186058 153.328873,95.385406 124.912025,124.030067 
	C109.592834,139.472076 97.139313,156.932602 87.420525,176.457703 
	C75.660255,200.084152 68.703499,225.009598 68.371124,251.287354 
	C68.185638,265.951996 70.817589,280.652252 72.183731,296.206696 
z"/>
<path fill="#FDFDFD" opacity="1.000000" stroke="none" 
	d="
M72.181824,295.771606 
	C70.817589,280.652252 68.185638,265.951996 68.371124,251.287354 
	C68.703499,225.009598 75.660255,200.084152 87.420525,176.457703 
	C97.139313,156.932602 109.592834,139.472076 124.912025,124.030067 
	C153.328873,95.385406 187.766373,78.186058 227.309052,71.295792 
	C246.555191,67.942177 266.127472,67.427277 285.452698,70.255432 
	C303.868591,72.950531 321.848907,78.048386 338.726868,86.073654 
	C353.399567,93.050323 367.260010,101.709007 378.960388,112.989960 
	C390.130676,123.759811 401.280212,134.896118 410.416473,147.354446 
	C426.404480,169.155914 436.757141,193.991531 441.777130,220.550949 
	C449.830078,263.157288 443.884949,304.091492 423.834290,342.650177 
	C414.231750,361.116455 402.302124,378.030640 387.391418,392.736359 
	C362.393341,417.390808 331.569183,430.894226 298.071014,438.815674 
	C269.866425,445.485291 241.599457,444.070312 213.180222,438.591156 
	C185.418610,433.238800 162.058075,419.731598 140.414246,402.596558 
	C109.447098,378.080414 88.536835,346.488068 76.078217,309.161560 
	C74.651237,304.886292 73.475800,300.527008 72.181824,295.771606 
M171.359772,338.889465 
	C171.359772,338.889465 171.140472,338.895508 171.368286,337.996552 
	C171.382599,324.406433 171.450150,310.816071 171.397308,297.226227 
	C171.336136,281.490387 171.169067,265.754974 171.270309,249.107330 
	C171.349869,244.415421 171.429428,239.723526 172.123993,235.205338 
	C176.520370,238.715286 180.968506,242.162598 185.304184,245.745972 
	C204.740326,261.809570 224.232117,277.807800 243.519821,294.048157 
	C252.004822,301.192566 262.926849,300.015564 268.056366,296.180115 
	C274.161713,291.615021 279.900421,286.558899 285.788452,281.703979 
	C300.250610,269.779297 314.759064,257.909882 329.135590,245.882767 
	C333.627777,242.124664 337.757904,237.933762 342.809845,234.378418 
	C342.902679,236.361862 343.076050,238.345276 343.076263,240.328735 
	C343.079376,271.891846 343.045654,303.454956 343.088318,335.017975 
	C343.090546,336.651093 343.702087,338.283325 344.949707,340.080414 
	C354.282837,339.987793 363.615967,339.895142 373.615540,339.335083 
	C373.674530,315.041779 373.757080,290.748474 373.771179,266.455170 
	C373.773773,261.978027 373.499176,257.500793 373.650269,252.122299 
	C373.616058,233.738937 373.581848,215.355591 373.716003,196.303726 
	C373.669556,195.849091 373.623138,195.394455 373.820984,194.209290 
	C373.771210,193.443069 373.721436,192.676834 373.823639,191.250870 
	C373.750031,190.809174 373.676422,190.367493 373.795349,189.017151 
	C373.515228,183.381668 373.235107,177.746170 372.081451,171.886154 
	C365.670715,172.215942 359.225220,172.247177 352.862183,172.987000 
	C349.017029,173.434082 344.475281,173.953156 341.664886,176.207855 
	C328.080536,187.106201 314.977203,198.604172 301.089813,210.112961 
	C297.383942,213.345032 293.678070,216.577118 289.331879,220.056992 
	C283.099091,225.329422 276.866302,230.601852 270.028259,236.108856 
	C265.365723,238.992020 260.703156,241.875183 255.571701,244.294037 
	C253.933838,243.191238 252.182663,242.224182 250.674957,240.965485 
	C225.044952,219.568008 199.485870,198.085220 173.773743,176.787140 
	C171.292053,174.731476 167.902481,173.771835 164.039246,172.026703 
	C156.458084,172.026703 148.876923,172.026703 141.101547,172.026703 
	C141.101547,178.825668 141.101547,185.416397 140.938873,192.795013 
	C140.987305,193.861465 141.035751,194.927933 140.910492,196.911133 
	C140.970520,201.286362 141.030533,205.661575 140.926025,210.956024 
	C140.926025,253.966614 140.926025,296.977203 140.926025,340.015961 
	C151.438782,340.015961 161.251663,340.015961 171.485168,339.977844 
	C171.590363,339.884674 171.791824,339.780945 171.782959,339.700317 
	C171.754761,339.444000 171.648193,339.196289 171.359772,338.889465 
z"/>
<path fill="#D93D29" opacity="1.000000" stroke="none" 
	d="
M164.934372,172.303406 
	C167.902481,173.771835 171.292053,174.731476 173.773743,176.787140 
	C199.485870,198.085220 225.044952,219.568008 250.674957,240.965485 
	C252.182663,242.224182 253.933838,243.191238 255.913757,244.858704 
	C257.222107,246.306976 258.189240,247.189667 259.154602,248.074310 
	C266.454468,254.763611 273.753937,261.453308 280.895508,268.433655 
	C277.042175,271.812408 273.389282,274.952820 269.643127,277.977753 
	C261.155762,284.831055 253.351807,284.714630 244.962036,277.716858 
	C221.751877,258.357574 198.544098,238.995377 175.300217,219.676605 
	C174.097977,218.677368 172.569122,218.071091 171.108398,216.920029 
	C170.723297,215.977585 170.565018,215.221939 170.099869,214.842239 
	C160.743073,207.204285 151.350967,199.609573 141.983978,191.537323 
	C142.006088,186.436127 142.177383,181.795807 141.957657,177.174072 
	C141.801788,173.895187 143.012604,172.907532 146.232849,172.920670 
	C152.465759,172.946075 158.700424,172.534103 164.934372,172.303406 
z"/>
<path fill="#D3CECD" opacity="1.000000" stroke="none" 
	d="
M171.192322,217.281876 
	C172.569122,218.071091 174.097977,218.677368 175.300217,219.676605 
	C198.544098,238.995377 221.751877,258.357574 244.962036,277.716858 
	C253.351807,284.714630 261.155762,284.831055 269.643127,277.977753 
	C273.389282,274.952820 277.042175,271.812408 281.220886,268.331299 
	C285.141693,264.983887 288.579041,262.029633 292.336731,258.964905 
	C301.196777,251.593018 309.736511,244.331558 318.574768,236.959900 
	C320.102509,235.604279 321.331726,234.358871 322.841156,233.051910 
	C324.113068,232.105103 325.104797,231.219818 326.369080,230.218292 
	C326.829590,229.774246 327.017578,229.446457 327.140869,229.130859 
	C327.076172,229.143066 327.138092,229.259277 327.433319,229.222351 
	C328.157562,228.794708 328.586548,228.404022 329.007782,228.006348 
	C329.000000,227.999390 329.009918,228.016861 329.263123,227.949738 
	C329.713013,227.603485 329.909637,227.324356 330.067230,227.040039 
	C330.028168,227.034866 330.046295,227.111572 330.310730,227.041245 
	C330.771179,226.677399 330.967194,226.383881 331.114685,226.090805 
	C331.066132,226.091248 331.098969,226.182571 331.370544,226.113953 
	C331.829437,225.740341 332.016724,225.435318 332.158691,225.103424 
	C332.113342,225.076569 332.092682,225.179916 332.407043,225.114014 
	C332.996613,224.728973 333.271851,224.409836 333.699982,224.083527 
	C333.852844,224.076340 334.038544,223.833069 334.254578,223.776123 
	C334.735687,223.546646 334.899963,223.305466 334.981873,223.001801 
	C335.000336,223.007980 334.997192,222.969254 335.248352,222.905365 
	C335.702972,222.569931 335.906464,222.298386 336.373199,221.951874 
	C337.132874,221.353195 337.629333,220.829468 338.390411,220.212845 
	C339.044464,219.731476 339.433868,219.343018 340.112732,218.888123 
	C340.591492,218.763580 340.780762,218.705444 341.389893,218.786407 
	C341.891083,223.930649 341.972443,228.935822 342.053772,233.940979 
	C337.757904,237.933762 333.627777,242.124664 329.135590,245.882767 
	C314.759064,257.909882 300.250610,269.779297 285.788452,281.703979 
	C279.900421,286.558899 274.161713,291.615021 268.056366,296.180115 
	C262.926849,300.015564 252.004822,301.192566 243.519821,294.048157 
	C224.232117,277.807800 204.740326,261.809570 185.304184,245.745972 
	C180.968506,242.162598 176.520370,238.715286 171.720459,234.659195 
	C171.275391,228.502655 171.233856,222.892273 171.192322,217.281876 
z"/>
<path fill="#DB422E" opacity="1.000000" stroke="none" 
	d="
M373.352539,253.023590 
	C373.499176,257.500793 373.773773,261.978027 373.771179,266.455170 
	C373.757080,290.748474 373.674530,315.041779 372.972168,339.298218 
	C362.901855,339.177765 353.474854,339.094208 344.030273,338.541626 
	C344.003937,318.174683 344.040588,298.276611 343.946625,278.379120 
	C343.928802,274.605713 345.022003,271.923492 349.270477,271.134003 
	C351.561798,272.090088 353.679840,273.793121 355.451141,273.487427 
	C359.614441,272.768860 364.848755,274.763580 367.721802,270.151672 
	C370.765350,265.266022 373.311462,260.062012 372.081665,253.743073 
	C372.572388,253.371445 372.962463,253.197510 373.352539,253.023590 
z"/>
<path fill="#DB3C29" opacity="1.000000" stroke="none" 
	d="
M301.703308,209.889557 
	C314.977203,198.604172 328.080536,187.106201 341.664886,176.207855 
	C344.475281,173.953156 349.017029,173.434082 352.862183,172.987000 
	C359.225220,172.247177 365.670715,172.215942 372.530823,172.458649 
	C373.187714,178.662689 373.395264,184.294250 373.602814,189.925797 
	C373.676422,190.367493 373.750031,190.809174 373.560883,191.608231 
	C373.298126,191.965591 372.924194,192.015930 372.620667,192.149536 
	C367.351532,196.303558 362.277405,200.198776 357.451355,204.380341 
	C352.811249,208.400772 348.427948,212.717560 343.561951,216.921051 
	C342.451813,216.956177 341.711548,216.974426 340.580872,216.988205 
	C337.530823,217.146072 334.084930,216.315628 332.371460,217.672623 
	C328.533081,220.712418 325.384033,220.136536 321.463959,218.302322 
	C314.983704,215.270187 308.300842,212.671127 301.703308,209.889557 
z"/>
<path fill="#B6291F" opacity="1.000000" stroke="none" 
	d="
M318.276215,237.070099 
	C309.736511,244.331558 301.196777,251.593018 292.330170,258.514282 
	C291.870972,253.833710 293.052460,249.032654 288.299805,246.184250 
	C282.451904,242.679428 276.525818,239.305054 270.633514,235.874298 
	C276.866302,230.601852 283.099091,225.329422 289.786835,220.255585 
	C293.153870,222.660675 296.065948,224.867172 299.041992,227.412094 
	C301.232300,229.163376 303.223694,230.868805 305.514435,231.925293 
	C309.674438,233.843887 314.012482,235.376434 318.276215,237.070099 
z"/>
<path fill="#BD2F24" opacity="1.000000" stroke="none" 
	d="
M270.330872,235.991577 
	C276.525818,239.305054 282.451904,242.679428 288.299805,246.184250 
	C293.052460,249.032654 291.870972,253.833710 292.009827,258.624756 
	C288.579041,262.029633 285.141693,264.983887 281.378967,268.040527 
	C273.753937,261.453308 266.454468,254.763611 259.154602,248.074310 
	C258.189240,247.189667 257.222107,246.306976 256.148193,245.090851 
	C260.703156,241.875183 265.365723,238.992020 270.330872,235.991577 
z"/>
<path fill="#B93D2E" opacity="1.000000" stroke="none" 
	d="
M340.971283,216.992676 
	C341.711548,216.974426 342.451813,216.956177 343.591492,217.397797 
	C344.010345,222.897339 344.029755,227.937027 344.037476,233.410385 
	C344.401947,241.185867 344.778076,248.527695 345.154205,255.869522 
	C345.700134,255.999420 346.246033,256.129303 346.791962,256.259216 
	C347.790100,255.106918 348.567749,253.497070 349.828430,252.889511 
	C353.377014,251.179398 357.083984,248.819366 360.803040,248.678070 
	C365.971100,248.481735 371.827087,244.809647 371.970795,239.635315 
	C372.364990,225.439651 372.610962,211.239883 373.070923,197.000061 
	C373.226288,196.958405 373.547668,196.972229 373.547668,196.972229 
	C373.581848,215.355591 373.616058,233.738937 373.501404,252.572937 
	C372.962463,253.197510 372.572388,253.371445 371.697479,253.753586 
	C362.218231,257.574280 354.580078,262.962982 348.939606,270.968079 
	C345.022003,271.923492 343.928802,274.605713 343.946625,278.379120 
	C344.040588,298.276611 344.003937,318.174683 344.015228,338.767731 
	C344.017822,339.462891 344.029968,339.915985 344.029968,339.915985 
	C343.702087,338.283325 343.090546,336.651093 343.088318,335.017975 
	C343.045654,303.454956 343.079376,271.891846 343.076263,240.328735 
	C343.076050,238.345276 342.902679,236.361862 342.431824,234.159698 
	C341.972443,228.935822 341.891083,223.930649 341.394592,218.510925 
	C340.976715,217.728470 340.973999,217.360565 340.971283,216.992676 
z"/>
<path fill="#DE422D" opacity="1.000000" stroke="none" 
	d="
M340.580872,216.988220 
	C340.973999,217.360565 340.976715,217.728470 340.974731,218.371826 
	C340.780762,218.705444 340.591492,218.763580 339.816650,218.941345 
	C338.862610,219.475906 338.494202,219.890808 338.125793,220.305725 
	C337.629333,220.829468 337.132874,221.353195 336.136292,222.041245 
	C335.423157,222.460129 335.210175,222.714691 334.997192,222.969238 
	C334.997192,222.969254 335.000336,223.007980 334.789093,223.095032 
	C334.331055,223.343552 334.151306,223.560547 334.038544,223.833069 
	C334.038544,223.833069 333.852844,224.076340 333.379761,224.150482 
	C332.635345,224.543045 332.364014,224.861481 332.092682,225.179932 
	C332.092682,225.179916 332.113342,225.076569 331.889160,225.173157 
	C331.476288,225.574005 331.287628,225.878296 331.098969,226.182571 
	C331.098969,226.182571 331.066132,226.091248 330.857147,226.171326 
	C330.447540,226.538132 330.246918,226.824860 330.046295,227.111572 
	C330.046295,227.111572 330.028168,227.034866 329.827271,227.129700 
	C329.420868,227.488647 329.215393,227.752747 329.009918,228.016846 
	C329.009918,228.016861 329.000000,227.999390 328.694824,228.030930 
	C327.972473,228.461411 327.555298,228.860352 327.138123,229.259277 
	C327.138092,229.259277 327.076172,229.143066 326.859222,229.229187 
	C326.460358,229.655045 326.278412,229.994797 326.096497,230.334534 
	C325.104797,231.219818 324.113068,232.105103 322.428162,233.008102 
	C317.379425,231.164581 313.151764,228.827911 308.623199,227.609879 
	C305.623627,226.803101 302.380951,222.650574 298.978027,227.073669 
	C296.065948,224.867172 293.153870,222.660675 290.106995,220.131683 
	C293.678070,216.577118 297.383942,213.345032 301.396576,210.001251 
	C308.300842,212.671127 314.983704,215.270187 321.463959,218.302322 
	C325.384033,220.136536 328.533081,220.712418 332.371460,217.672623 
	C334.084930,216.315628 337.530823,217.146072 340.580872,216.988220 
z"/>
<path fill="#C73828" opacity="1.000000" stroke="none" 
	d="
M141.090546,210.036804 
	C141.030533,205.661575 140.970520,201.286362 141.339508,196.496094 
	C142.673065,196.762894 143.794907,197.281754 144.447906,198.152283 
	C149.880707,205.395004 154.614395,213.275085 160.754547,219.845673 
	C168.431000,228.060242 171.689621,237.064651 169.603912,247.982666 
	C165.835342,243.605896 162.319290,239.343979 158.998840,234.934769 
	C153.291107,227.355484 147.705383,219.684311 142.037521,211.756210 
	C141.701248,210.986069 141.395905,210.511444 141.090546,210.036804 
z"/>
<path fill="#B02920" opacity="1.000000" stroke="none" 
	d="
M169.944427,248.031265 
	C171.689621,237.064651 168.431000,228.060242 160.754547,219.845673 
	C154.614395,213.275085 149.880707,205.395004 144.447906,198.152283 
	C143.794907,197.281754 142.673065,196.762894 141.426361,196.037720 
	C141.035751,194.927933 140.987305,193.861465 141.236313,192.399780 
	C141.533752,192.004532 141.965973,192.006165 141.965973,192.006165 
	C151.350967,199.609573 160.743073,207.204285 170.099869,214.842239 
	C170.565018,215.221939 170.723297,215.977585 171.108398,216.920029 
	C171.233856,222.892273 171.275391,228.502655 171.412964,234.572327 
	C171.429428,239.723526 171.349869,244.415421 170.906219,249.548645 
	C170.373367,249.983704 170.204590,249.977478 170.019592,249.647919 
	C169.983734,248.893494 169.964081,248.462387 169.944427,248.031265 
z"/>
<path fill="#B3251C" opacity="1.000000" stroke="none" 
	d="
M344.049164,232.976715 
	C344.029755,227.937027 344.010345,222.897339 343.961365,217.380905 
	C348.427948,212.717560 352.811249,208.400772 357.451355,204.380341 
	C362.277405,200.198776 367.351532,196.303558 372.640564,192.458374 
	C373.168243,193.402344 373.372467,194.171082 373.576691,194.939819 
	C373.623138,195.394455 373.669556,195.849091 373.631836,196.637970 
	C373.547668,196.972229 373.226288,196.958405 372.741089,197.037842 
	C362.853668,209.070435 353.451416,221.023575 344.049164,232.976715 
z"/>
<path fill="#B92700" opacity="1.000000" stroke="none" 
	d="
M141.008301,210.496414 
	C141.395905,210.511444 141.701248,210.986069 142.015747,212.218567 
	C142.024918,254.784470 142.024918,296.592529 142.024918,338.901367 
	C151.767807,338.901367 160.858231,338.901367 170.246643,338.908905 
	C170.743256,338.909454 170.941864,338.902496 171.140472,338.895508 
	C171.140472,338.895508 171.359772,338.889465 171.315292,339.173859 
	C171.202072,339.644135 171.133316,339.830048 171.064560,340.015961 
	C161.251663,340.015961 151.438782,340.015961 140.926025,340.015961 
	C140.926025,296.977203 140.926025,253.966614 141.008301,210.496414 
z"/>
<path fill="#C5371F" opacity="1.000000" stroke="none" 
	d="
M171.254379,338.446045 
	C170.941864,338.902496 170.743256,338.909454 170.264435,338.451050 
	C170.001419,308.647491 170.018616,279.309357 170.035797,249.971237 
	C170.204590,249.977478 170.373367,249.983704 170.795044,250.004669 
	C171.169067,265.754974 171.336136,281.490387 171.397308,297.226227 
	C171.450150,310.816071 171.382599,324.406433 171.254379,338.446045 
z"/>
<path fill="#B82A0B" opacity="1.000000" stroke="none" 
	d="
M141.983978,191.537323 
	C141.965973,192.006165 141.533752,192.004532 141.317657,192.005829 
	C141.101547,185.416397 141.101547,178.825668 141.101547,172.026703 
	C148.876923,172.026703 156.458084,172.026703 164.486816,172.165054 
	C158.700424,172.534103 152.465759,172.946075 146.232849,172.920670 
	C143.012604,172.907532 141.801788,173.895187 141.957657,177.174072 
	C142.177383,181.795807 142.006088,186.436127 141.983978,191.537323 
z"/>
<path fill="#B92700" opacity="1.000000" stroke="none" 
	d="
M344.489838,339.998199 
	C344.029968,339.915985 344.017822,339.462891 344.032837,339.236755 
	C353.474854,339.094208 362.901855,339.177765 372.638977,339.531921 
	C363.615967,339.895142 354.282837,339.987793 344.489838,339.998199 
z"/>
<path fill="#B93D2E" opacity="1.000000" stroke="none" 
	d="
M373.699097,189.471466 
	C373.395264,184.294250 373.187714,178.662689 372.967560,172.570923 
	C373.235107,177.746170 373.515228,183.381668 373.699097,189.471466 
z"/>
<path fill="#B93D2E" opacity="1.000000" stroke="none" 
	d="
M373.698853,194.574554 
	C373.372467,194.171082 373.168243,193.402344 372.944092,192.324768 
	C372.924194,192.015930 373.298126,191.965591 373.484894,191.938110 
	C373.721436,192.676834 373.771210,193.443069 373.698853,194.574554 
z"/>
<path fill="#D3CECD" opacity="1.000000" stroke="none" 
	d="
M171.274872,339.996887 
	C171.133316,339.830048 171.202072,339.644135 171.421371,339.201752 
	C171.648193,339.196289 171.754761,339.444000 171.782959,339.700317 
	C171.791824,339.780945 171.590363,339.884674 171.274872,339.996887 
z"/>
<path fill="#CD3827" opacity="1.000000" stroke="none" 
	d="
M299.041992,227.412094 
	C302.380951,222.650574 305.623627,226.803101 308.623199,227.609879 
	C313.151764,228.827911 317.379425,231.164581 322.147949,233.069641 
	C321.331726,234.358871 320.102509,235.604279 318.574768,236.959900 
	C314.012482,235.376434 309.674438,233.843887 305.514435,231.925293 
	C303.223694,230.868805 301.232300,229.163376 299.041992,227.412094 
z"/>
<path fill="#D93D29" opacity="1.000000" stroke="none" 
	d="
M327.433350,229.222351 
	C327.555298,228.860352 327.972473,228.461411 328.702637,228.037903 
	C328.586548,228.404022 328.157562,228.794708 327.433350,229.222351 
z"/>
<path fill="#B93D2E" opacity="1.000000" stroke="none" 
	d="
M338.390411,220.212830 
	C338.494202,219.890808 338.862610,219.475906 339.527161,219.007782 
	C339.433868,219.343018 339.044464,219.731476 338.390411,220.212830 
z"/>
<path fill="#D93D29" opacity="1.000000" stroke="none" 
	d="
M331.370544,226.113953 
	C331.287628,225.878296 331.476288,225.574005 331.934479,225.200012 
	C332.016724,225.435318 331.829437,225.740341 331.370544,226.113953 
z"/>
<path fill="#D93D29" opacity="1.000000" stroke="none" 
	d="
M330.310730,227.041245 
	C330.246918,226.824860 330.447540,226.538132 330.905701,226.170898 
	C330.967194,226.383881 330.771179,226.677399 330.310730,227.041245 
z"/>
<path fill="#D93D29" opacity="1.000000" stroke="none" 
	d="
M329.263123,227.949738 
	C329.215393,227.752747 329.420868,227.488647 329.866333,227.134888 
	C329.909637,227.324356 329.713013,227.603485 329.263123,227.949738 
z"/>
<path fill="#D93D29" opacity="1.000000" stroke="none" 
	d="
M326.369080,230.218292 
	C326.278412,229.994797 326.460358,229.655045 326.923920,229.216980 
	C327.017578,229.446457 326.829590,229.774246 326.369080,230.218292 
z"/>
<path fill="#D93D29" opacity="1.000000" stroke="none" 
	d="
M332.407043,225.114014 
	C332.364014,224.861481 332.635345,224.543045 333.226898,224.157654 
	C333.271851,224.409836 332.996613,224.728973 332.407043,225.114014 
z"/>
<path fill="#D93D29" opacity="1.000000" stroke="none" 
	d="
M334.254578,223.776123 
	C334.151306,223.560547 334.331055,223.343552 334.770630,223.088837 
	C334.899963,223.305466 334.735687,223.546646 334.254578,223.776123 
z"/>
<path fill="#D93D29" opacity="1.000000" stroke="none" 
	d="
M335.248352,222.905365 
	C335.210175,222.714691 335.423157,222.460129 335.873047,222.116196 
	C335.906464,222.298386 335.702972,222.569931 335.248352,222.905365 
z"/>
<path fill="#E4442E" opacity="1.000000" stroke="none" 
	d="
M349.270477,271.134003 
	C354.580078,262.962982 362.218231,257.574280 371.596802,253.951279 
	C373.311462,260.062012 370.765350,265.266022 367.721802,270.151672 
	C364.848755,274.763580 359.614441,272.768860 355.451141,273.487427 
	C353.679840,273.793121 351.561798,272.090088 349.270477,271.134003 
z"/>
<path fill="#C53224" opacity="1.000000" stroke="none" 
	d="
M344.037476,233.410400 
	C353.451416,221.023575 362.853668,209.070435 372.585754,197.079514 
	C372.610962,211.239883 372.364990,225.439651 371.970795,239.635315 
	C371.827087,244.809647 365.971100,248.481735 360.803040,248.678070 
	C357.083984,248.819366 353.377014,251.179398 349.828430,252.889511 
	C348.567749,253.497070 347.790100,255.106918 346.791962,256.259216 
	C346.246033,256.129303 345.700134,255.999420 345.154205,255.869522 
	C344.778076,248.527695 344.401947,241.185867 344.037476,233.410400 
z"/>
<path fill="#DB402A" opacity="1.000000" stroke="none" 
	d="
M170.019592,249.647919 
	C170.018616,279.309357 170.001419,308.647491 169.966431,338.443481 
	C160.858231,338.901367 151.767807,338.901367 142.024918,338.901367 
	C142.024918,296.592529 142.024918,254.784470 142.046692,212.514069 
	C147.705383,219.684311 153.291107,227.355484 158.998840,234.934769 
	C162.319290,239.343979 165.835342,243.605896 169.603912,247.982666 
	C169.964081,248.462387 169.983734,248.893494 170.019592,249.647919 
z"/>
</svg>