<svg xmlns="http://www.w3.org/2000/svg" xmlns:xlink="http://www.w3.org/1999/xlink" width="500" zoomAndPan="magnify" viewBox="0 0 375 374.999991" height="500" preserveAspectRatio="xMidYMid meet" version="1.2"><defs><clipPath id="bb81d762e8"><path d="M 118 112.5 L 257 112.5 L 257 262 L 118 262 Z M 118 112.5 "/></clipPath><clipPath id="c5763e2c2b"><path d="M 353.300781 342.25 L 367 342.25 L 367 359.5 L 353.300781 359.5 Z M 353.300781 342.25 "/></clipPath></defs><g id="03513e3391"><rect x="0" width="375" y="0" height="374.999991" style="fill:#ffffff;fill-opacity:1;stroke:none;"/><rect x="0" width="375" y="0" height="374.999991" style="fill:#ffffff;fill-opacity:1;stroke:none;"/><g clip-rule="nonzero" clip-path="url(#bb81d762e8)"><path style=" stroke:none;fill-rule:nonzero;fill:#000000;fill-opacity:1;" d="M 219.515625 218.257812 C 222.085938 224.214844 221.382812 230.425781 221.425781 236.5625 C 221.464844 242.679688 221.460938 248.796875 221.421875 254.914062 C 221.386719 259.464844 217.726562 262.496094 213.507812 261.570312 C 210.566406 260.921875 208.5 258.359375 208.492188 255.191406 C 208.476562 246.546875 208.445312 237.898438 208.53125 229.253906 C 208.578125 224.945312 207.308594 221.207031 204.402344 218.042969 C 202.53125 216.003906 201.851562 213.679688 202.851562 211.0625 C 203.824219 208.523438 205.808594 207.34375 208.476562 206.847656 C 213.371094 205.9375 218.339844 205.148438 223.0625 203.632812 C 233.964844 200.128906 240.351562 192.332031 242.679688 181.21875 C 244.109375 174.40625 244.773438 167.523438 243.027344 160.636719 C 241.902344 156.199219 239.804688 152.242188 236.683594 148.902344 C 234.398438 146.460938 233.851562 143.871094 234.984375 140.703125 C 236.667969 135.984375 236.839844 131.136719 235.601562 125.957031 C 233.902344 126.535156 232.214844 126.902344 230.722656 127.660156 C 226.953125 129.574219 223.183594 131.515625 219.582031 133.730469 C 217.171875 135.210938 214.871094 135.65625 212.125 134.945312 C 198.914062 131.523438 185.695312 131.527344 172.464844 134.960938 C 169.78125 135.65625 167.46875 135.316406 165.15625 133.746094 C 160.636719 130.683594 155.882812 128.03125 150.605469 126.460938 C 150.132812 126.320312 149.648438 126.230469 149.054688 126.085938 C 148.074219 129.703125 147.996094 133.246094 148.664062 136.800781 C 148.960938 138.378906 149.433594 139.933594 149.921875 141.46875 C 150.707031 143.941406 150.378906 146.210938 148.617188 148.113281 C 142.859375 154.34375 140.304688 161.695312 140.636719 170.140625 C 140.871094 175.980469 141.578125 181.722656 143.753906 187.195312 C 147.277344 196.0625 153.992188 201.445312 162.882812 204.152344 C 167.058594 205.425781 171.402344 206.195312 175.714844 206.933594 C 180.09375 207.6875 182.683594 210.378906 182.105469 214.351562 C 181.917969 215.621094 181.265625 216.996094 180.414062 217.957031 C 177.34375 221.445312 176.03125 225.410156 176.105469 230.042969 C 176.230469 238.382812 176.164062 246.726562 176.132812 255.070312 C 176.121094 258.898438 173.378906 261.722656 169.765625 261.769531 C 166.128906 261.820312 163.320312 258.929688 163.28125 255.03125 C 163.246094 251.398438 163.273438 247.769531 163.273438 244.328125 C 159.972656 244.328125 156.804688 244.496094 153.65625 244.292969 C 146.15625 243.804688 139.910156 240.527344 134.8125 235.089844 C 132.503906 232.625 130.433594 229.933594 128.28125 227.324219 C 126.5 225.167969 124.652344 223.257812 121.839844 222.285156 C 118.722656 221.203125 117.296875 217.492188 118.371094 214.355469 C 119.476562 211.136719 122.8125 209.363281 126.125 210.214844 C 130.402344 211.3125 133.738281 213.855469 136.5625 217.121094 C 138.613281 219.488281 140.578125 221.933594 142.511719 224.394531 C 147.925781 231.289062 154.988281 232.722656 163.089844 230.78125 C 163.242188 228.625 163.261719 226.5 163.574219 224.417969 C 163.878906 222.382812 164.480469 220.394531 164.964844 218.339844 C 162.660156 217.636719 160.238281 216.984375 157.875 216.160156 C 140.605469 210.140625 131.226562 197.667969 128.554688 179.847656 C 127.503906 172.824219 127.144531 165.773438 128.765625 158.75 C 130.054688 153.160156 132.359375 148.042969 135.769531 143.441406 C 136.355469 142.648438 136.5625 141.945312 136.339844 140.957031 C 134.519531 132.9375 135.179688 125.101562 138.238281 117.472656 C 139.507812 114.304688 141.605469 113.03125 144.988281 112.871094 C 152.96875 112.5 159.9375 115.566406 166.496094 119.503906 C 169.640625 121.390625 172.417969 121.730469 175.925781 121.035156 C 187.902344 118.652344 199.910156 118.996094 211.839844 121.570312 C 213.21875 121.867188 214.277344 121.730469 215.492188 120.984375 C 221.410156 117.355469 227.574219 114.226562 234.519531 113.125 C 236.636719 112.789062 238.859375 112.789062 241.003906 112.980469 C 243.5625 113.214844 245.328125 114.765625 246.300781 117.167969 C 249.445312 124.933594 250.15625 132.898438 248.355469 141.097656 C 248.214844 141.730469 248.371094 142.628906 248.75 143.144531 C 255.0625 151.808594 257.523438 161.53125 256.875 172.148438 C 256.445312 179.195312 255.363281 186.105469 252.601562 192.660156 C 247.386719 205.054688 237.925781 212.628906 225.335938 216.613281 C 223.472656 217.203125 221.574219 217.679688 219.515625 218.257812 Z M 219.515625 218.257812 "/></g><g clip-rule="nonzero" clip-path="url(#c5763e2c2b)"><path style=" stroke:none;fill-rule:nonzero;fill:#231f20;fill-opacity:1;" d="M 163.425781 359.304688 C 161.3125 359.320312 159.277344 358.929688 157.316406 358.140625 C 155.359375 357.351562 153.621094 356.21875 152.109375 354.746094 C 148.816406 351.523438 146.976562 347.011719 146.929688 342.042969 C 146.871094 336.183594 146.886719 330.304688 146.898438 324.621094 C 146.902344 322.742188 146.90625 320.878906 146.910156 319.035156 C 145.09375 319.050781 143.285156 319.078125 141.519531 319.109375 C 136.285156 319.195312 131.339844 319.277344 126.296875 318.949219 C 109.152344 317.832031 94.121094 310.503906 81.609375 297.160156 C 77.621094 292.90625 73.894531 288.3125 70.292969 283.871094 C 69.035156 282.320312 67.734375 280.714844 66.441406 279.152344 C 62 273.773438 58.089844 270.039062 52.328125 268.046875 C 48.433594 266.699219 45.355469 263.742188 43.660156 259.71875 C 42.859375 257.785156 42.417969 255.769531 42.347656 253.675781 C 42.277344 251.582031 42.574219 249.542969 43.246094 247.558594 C 46.085938 239.285156 54.667969 234.699219 63.214844 236.890625 C 72.496094 239.273438 80.671875 244.667969 88.210938 253.378906 C 92.316406 258.128906 96.570312 263.324219 102 270.234375 C 112.9375 284.148438 127.527344 288.871094 146.570312 284.652344 C 146.636719 283.558594 146.695312 282.464844 146.75 281.398438 C 146.925781 278.011719 147.109375 274.507812 147.621094 271.089844 C 148.121094 267.75 148.972656 264.429688 149.792969 261.21875 C 150.023438 260.324219 150.257812 259.410156 150.484375 258.492188 C 149.3125 258.140625 148.128906 257.792969 146.96875 257.453125 C 143.234375 256.359375 139.375 255.226562 135.589844 253.90625 C 115.691406 246.976562 99.773438 236.125 88.28125 221.652344 C 77.125 207.601562 69.867188 189.789062 66.707031 168.707031 C 63.742188 148.941406 63.898438 133.71875 67.214844 119.355469 C 70.273438 106.113281 75.816406 94.007812 83.691406 83.375 C 84.828125 81.84375 85.09375 80.707031 84.71875 79.042969 C 80.476562 60.363281 81.976562 41.777344 89.183594 23.808594 C 92.265625 16.128906 97.539062 12.519531 106.292969 12.113281 C 126.628906 11.164062 144.050781 19.921875 156.957031 27.664062 C 163.546875 31.617188 169.507812 32.578125 177.527344 30.984375 C 204.414062 25.640625 232.570312 26.058594 261.214844 32.226562 C 264.082031 32.84375 266.027344 32.535156 268.390625 31.089844 C 280.703125 23.546875 295.628906 15.464844 312.984375 12.710938 C 317.613281 11.976562 322.796875 11.863281 328.390625 12.367188 C 334.726562 12.941406 339.457031 16.652344 342.070312 23.101562 C 349.472656 41.351562 351.097656 60.28125 346.902344 79.355469 C 346.679688 80.378906 346.96875 81.945312 347.523438 82.703125 C 354.785156 92.660156 360.0625 103.542969 363.210938 115.050781 C 366.246094 126.144531 367.398438 138.164062 366.628906 150.777344 C 365.453125 170.054688 362.273438 185.28125 356.625 198.695312 C 350.65625 212.855469 342.050781 224.824219 331.042969 234.265625 C 320.585938 243.234375 307.636719 250.199219 292.550781 254.96875 C 289.601562 255.902344 286.652344 256.703125 283.527344 257.550781 C 282.667969 257.78125 281.792969 258.019531 280.902344 258.265625 C 285.132812 269.253906 284.953125 280.582031 284.78125 291.554688 C 284.738281 294.125 284.695312 296.78125 284.714844 299.375 C 284.8125 314.472656 284.808594 328.339844 284.703125 341.769531 C 284.660156 347.421875 282.324219 352.507812 278.289062 355.730469 C 274.402344 358.832031 269.449219 359.921875 264.335938 358.800781 C 262.496094 358.40625 260.773438 357.714844 259.175781 356.71875 C 257.574219 355.726562 256.191406 354.488281 255.023438 353.007812 C 253.832031 351.5 252.929688 349.832031 252.308594 348.011719 C 251.6875 346.195312 251.382812 344.324219 251.398438 342.398438 L 251.386719 336.4375 C 251.347656 318.761719 251.304688 300.484375 251.488281 282.5 C 251.589844 272.644531 248.617188 264.5625 242.398438 257.796875 C 237.351562 252.304688 236.03125 246.28125 238.476562 239.898438 C 240.738281 233.996094 245.410156 230.460938 252.765625 229.09375 C 254.480469 228.777344 256.199219 228.460938 257.921875 228.152344 C 267.351562 226.4375 277.105469 224.664062 286.253906 221.730469 C 310.148438 214.0625 325.015625 197.082031 330.433594 171.265625 C 334.398438 152.351562 334.652344 137.9375 331.25 124.53125 C 328.683594 114.414062 323.890625 105.550781 316.996094 98.183594 C 311.234375 92.023438 309.871094 85.453125 312.707031 77.507812 C 316.257812 67.566406 316.84375 57.324219 314.492188 46.257812 C 313.832031 46.464844 313.179688 46.660156 312.535156 46.855469 C 309.9375 47.640625 307.480469 48.378906 305.261719 49.503906 C 296.457031 53.96875 287.871094 58.394531 279.644531 63.449219 C 273.457031 67.25 267.730469 68.175781 261.082031 66.453125 C 230.976562 58.660156 200.433594 58.671875 170.296875 66.492188 C 163.496094 68.257812 157.6875 67.289062 152.019531 63.449219 C 139.921875 55.253906 129.390625 49.980469 118.867188 46.851562 C 118.289062 46.679688 117.695312 46.539062 117.023438 46.390625 C 115.261719 53.734375 115.113281 61.070312 116.558594 68.757812 C 117.222656 72.304688 118.289062 75.785156 119.417969 79.332031 C 121.511719 85.9375 120.371094 91.664062 116.027344 96.359375 C 103.152344 110.277344 97.269531 126.503906 98.042969 145.972656 C 98.6875 162.117188 100.867188 174.085938 105.117188 184.78125 C 112.628906 203.671875 127.132812 216.503906 148.222656 222.921875 C 157.4375 225.726562 167.007812 227.46875 177.664062 229.296875 C 189.070312 231.253906 195.269531 238.558594 193.839844 248.363281 C 193.375 251.558594 191.71875 255.089844 189.523438 257.578125 C 182.949219 265.035156 179.832031 273.78125 179.992188 284.316406 C 180.242188 300.800781 180.167969 317.558594 180.097656 333.765625 C 180.085938 336.550781 180.074219 339.335938 180.0625 342.125 C 180.023438 351.792969 172.96875 359.179688 163.652344 359.304688 C 163.578125 359.304688 163.5 359.304688 163.425781 359.304688 Z M 148.628906 315.59375 C 148.859375 315.59375 149.078125 315.636719 149.289062 315.722656 C 149.496094 315.8125 149.683594 315.9375 149.84375 316.097656 C 150.007812 316.257812 150.128906 316.445312 150.21875 316.65625 C 150.304688 316.867188 150.347656 317.085938 150.347656 317.3125 C 150.347656 319.714844 150.34375 322.15625 150.335938 324.628906 C 150.324219 330.304688 150.308594 336.171875 150.367188 342.011719 C 150.402344 346.0625 151.875 349.710938 154.511719 352.285156 C 155.726562 353.46875 157.125 354.371094 158.703125 354.988281 C 160.277344 355.609375 161.914062 355.902344 163.609375 355.867188 C 171.121094 355.765625 176.597656 349.980469 176.625 342.109375 C 176.636719 339.320312 176.648438 336.535156 176.660156 333.746094 C 176.734375 317.558594 176.808594 300.816406 176.554688 284.363281 C 176.382812 272.9375 179.78125 263.429688 186.949219 255.300781 C 188.804688 253.148438 189.96875 250.667969 190.4375 247.863281 C 191.585938 239.988281 186.59375 234.316406 177.085938 232.683594 C 166.3125 230.835938 156.632812 229.074219 147.222656 226.210938 C 125.082031 219.476562 109.84375 205.960938 101.925781 186.050781 C 96.285156 171.859375 95.050781 157.253906 94.609375 146.109375 C 94.210938 136.109375 95.574219 126.691406 98.648438 118.117188 C 101.777344 109.402344 106.777344 101.296875 113.507812 94.023438 C 116.996094 90.25 117.859375 85.785156 116.140625 80.375 C 114.984375 76.71875 113.882812 73.128906 113.179688 69.390625 C 111.53125 60.625 111.839844 52.28125 114.117188 43.886719 C 114.175781 43.671875 114.273438 43.476562 114.410156 43.296875 C 114.542969 43.121094 114.707031 42.972656 114.898438 42.859375 C 115.09375 42.746094 115.296875 42.671875 115.519531 42.640625 C 115.738281 42.605469 115.960938 42.613281 116.175781 42.667969 C 116.621094 42.773438 117.042969 42.867188 117.441406 42.957031 C 118.277344 43.144531 119.0625 43.320312 119.847656 43.554688 C 130.714844 46.785156 141.550781 52.199219 153.949219 60.601562 C 158.804688 63.890625 163.582031 64.679688 169.4375 63.164062 C 200.144531 55.195312 231.269531 55.179688 261.945312 63.125 C 267.617188 64.589844 272.519531 63.785156 277.847656 60.515625 C 286.183594 55.394531 294.839844 50.933594 303.710938 46.433594 C 306.199219 45.171875 308.917969 44.351562 311.546875 43.558594 C 312.746094 43.199219 313.984375 42.824219 315.199219 42.410156 C 315.429688 42.332031 315.664062 42.304688 315.90625 42.324219 C 316.144531 42.34375 316.371094 42.414062 316.582031 42.53125 C 316.796875 42.648438 316.972656 42.800781 317.121094 42.996094 C 317.265625 43.1875 317.367188 43.402344 317.425781 43.636719 C 320.402344 56.074219 319.921875 67.53125 315.949219 78.660156 C 313.558594 85.351562 314.65625 90.648438 319.507812 95.832031 C 326.804688 103.628906 331.875 113 334.585938 123.683594 C 338.125 137.625 337.878906 152.519531 333.796875 171.96875 C 331.019531 185.222656 325.761719 196.402344 318.179688 205.203125 C 310.367188 214.273438 299.976562 220.9375 287.304688 225.003906 C 277.941406 228.007812 268.078125 229.800781 258.539062 231.53125 C 256.824219 231.84375 255.109375 232.160156 253.398438 232.476562 C 247.148438 233.636719 243.535156 236.304688 241.6875 241.128906 C 239.722656 246.261719 240.785156 250.953125 244.933594 255.46875 C 251.769531 262.910156 255.039062 271.761719 254.929688 282.535156 C 254.746094 300.496094 254.785156 318.761719 254.824219 336.429688 L 254.839844 342.390625 C 254.851562 348.855469 258.96875 354.097656 265.078125 355.441406 C 269.15625 356.335938 273.089844 355.484375 276.148438 353.042969 C 279.367188 350.46875 281.234375 346.351562 281.269531 341.742188 C 281.371094 328.328125 281.375 314.476562 281.277344 299.394531 C 281.261719 296.761719 281.304688 294.085938 281.34375 291.5 C 281.523438 280.285156 281.707031 268.683594 277.007812 257.804688 C 276.910156 257.578125 276.863281 257.339844 276.867188 257.09375 C 276.871094 256.84375 276.925781 256.609375 277.03125 256.382812 C 277.140625 256.160156 277.289062 255.96875 277.476562 255.808594 C 277.667969 255.648438 277.882812 255.535156 278.121094 255.46875 C 279.660156 255.035156 281.171875 254.625 282.632812 254.230469 C 285.71875 253.390625 288.632812 252.601562 291.519531 251.6875 C 321.832031 242.109375 342.09375 224.339844 353.460938 197.359375 C 358.953125 184.316406 362.050781 169.445312 363.199219 150.566406 C 364.734375 125.394531 358.699219 103.859375 344.746094 84.730469 C 343.613281 83.179688 343.109375 80.609375 343.546875 78.617188 C 347.589844 60.230469 346.023438 41.988281 338.890625 24.398438 C 336.757812 19.144531 333.125 16.25 328.085938 15.792969 C 322.773438 15.3125 317.875 15.417969 313.523438 16.109375 C 296.765625 18.765625 282.214844 26.65625 270.191406 34.023438 C 267.09375 35.917969 264.195312 36.386719 260.492188 35.589844 C 232.3125 29.519531 204.625 29.105469 178.199219 34.359375 C 169.375 36.109375 162.492188 34.992188 155.195312 30.613281 C 142.699219 23.121094 125.871094 14.640625 106.457031 15.546875 C 99.035156 15.894531 94.957031 18.660156 92.375 25.089844 C 85.433594 42.398438 83.988281 60.292969 88.070312 78.28125 C 88.675781 80.945312 88.191406 83.078125 86.457031 85.421875 C 78.867188 95.671875 73.519531 107.351562 70.570312 120.132812 C 67.355469 134.054688 67.210938 148.878906 70.109375 168.199219 C 76.332031 209.691406 98.742188 237.4375 136.726562 250.664062 C 140.429688 251.953125 144.25 253.074219 147.941406 254.15625 C 149.625 254.648438 151.363281 255.160156 153.042969 255.671875 C 153.253906 255.738281 153.441406 255.835938 153.613281 255.972656 C 153.785156 256.109375 153.921875 256.273438 154.03125 256.460938 C 154.140625 256.652344 154.210938 256.851562 154.242188 257.070312 C 154.273438 257.285156 154.265625 257.5 154.214844 257.710938 C 153.867188 259.183594 153.492188 260.652344 153.128906 262.074219 C 152.292969 265.34375 151.5 268.433594 151.023438 271.605469 C 150.535156 274.855469 150.367188 278.121094 150.1875 281.578125 C 150.109375 283.074219 150.03125 284.621094 149.921875 286.164062 C 149.894531 286.539062 149.761719 286.867188 149.519531 287.152344 C 149.277344 287.441406 148.972656 287.628906 148.605469 287.714844 C 138.445312 290.148438 129.621094 290.230469 121.632812 287.972656 C 113.050781 285.550781 105.539062 280.296875 99.304688 272.359375 C 93.910156 265.496094 89.6875 260.335938 85.617188 255.632812 C 78.550781 247.46875 70.945312 242.425781 62.363281 240.226562 C 55.574219 238.484375 48.753906 242.117188 46.5 248.679688 C 44.222656 255.324219 47.40625 262.703125 53.457031 264.796875 C 60.683594 267.300781 65.320312 272.390625 69.097656 276.964844 C 70.398438 278.539062 71.703125 280.148438 72.96875 281.707031 C 76.53125 286.101562 80.21875 290.644531 84.125 294.808594 C 96.015625 307.492188 110.28125 314.460938 126.523438 315.519531 C 131.429688 315.839844 136.304688 315.757812 141.46875 315.671875 C 143.796875 315.632812 146.210938 315.59375 148.628906 315.59375 Z M 148.628906 315.59375 "/></g></g></svg>